<svg width="76" height="33" viewBox="0 0 76 33" fill="none" xmlns="http://www.w3.org/2000/svg">
<path d="M3.0312 22.1983C3.16807 22.7333 3.71278 23.0561 4.24783 22.9192L12.9671 20.6887C13.5021 20.5519 13.8249 20.0072 13.688 19.4721C13.5512 18.9371 13.0064 18.6143 12.4714 18.7511L4.72097 20.7338L2.7383 12.9834C2.60143 12.4483 2.05672 12.1255 1.52167 12.2624C0.986613 12.3993 0.663824 12.944 0.800698 13.479L3.0312 22.1983ZM75.8225 30.8818C57.2377 4.00918 41.1352 -2.15606 28.4134 0.598116C15.8561 3.31669 7.16743 14.6439 3.13971 21.4406L4.86029 22.4602C8.83257 15.757 17.1439 5.08421 28.8366 2.55283C40.3648 0.0570593 55.7623 5.39189 74.1775 32.0194L75.8225 30.8818Z" fill="#EEEEEE" fill-opacity="0.7"/>
</svg>
