<svg width="102" height="38" viewBox="0 0 102 38" fill="none" xmlns="http://www.w3.org/2000/svg">
<path d="M1.125 5.425C1.125 4.99167 1.26667 4.65833 1.55 4.425C1.83333 4.19167 2.175 4.075 2.575 4.075C2.975 4.075 3.31667 4.19167 3.6 4.425C3.9 4.65833 4.05 4.99167 4.05 5.425V18.725C4.05 19.125 3.9 19.4417 3.6 19.675C3.31667 19.8917 2.975 20 2.575 20C2.175 20 1.83333 19.8917 1.55 19.675C1.26667 19.4583 1.125 19.1417 1.125 18.725V5.425ZM13.9182 7.025C15.6348 7.025 16.9765 7.575 17.9432 8.675C18.9265 9.775 19.4182 11.2333 19.4182 13.05V18.7C19.4182 19.1 19.2932 19.4167 19.0432 19.65C18.7932 19.8833 18.4432 20 17.9932 20C17.5765 20 17.2348 19.8833 16.9682 19.65C16.7015 19.4 16.5682 19.0833 16.5682 18.7V13C16.5682 11.9167 16.3098 11.0667 15.7932 10.45C15.2932 9.83333 14.5265 9.525 13.4932 9.525C13.0098 9.525 12.4598 9.69167 11.8432 10.025C11.2265 10.3417 10.6932 10.825 10.2432 11.475C9.80983 12.125 9.59316 12.9 9.59316 13.8V18.725C9.59316 19.125 9.4765 19.4417 9.24316 19.675C9.00983 19.8917 8.66816 20 8.21816 20C7.76816 20 7.40983 19.8917 7.14316 19.675C6.8765 19.4417 6.74316 19.125 6.74316 18.725V8.55C6.74316 8.15 6.88483 7.84167 7.16816 7.625C7.4515 7.39167 7.78483 7.275 8.16816 7.275C8.53483 7.275 8.85983 7.39167 9.14316 7.625C9.44316 7.84167 9.59316 8.13333 9.59316 8.5V8.675C10.7765 7.575 12.2182 7.025 13.9182 7.025ZM21.9314 17.025C21.8981 16.8917 21.8814 16.7833 21.8814 16.7C21.8814 16.35 22.0314 16.0583 22.3314 15.825C22.6481 15.5917 22.9898 15.475 23.3564 15.475C23.6564 15.475 23.9231 15.5667 24.1564 15.75C24.3898 15.9167 24.5648 16.175 24.6814 16.525C24.8148 16.9417 25.1814 17.2583 25.7814 17.475C26.3981 17.6917 27.0814 17.8 27.8314 17.8C28.7314 17.8 29.4564 17.6417 30.0064 17.325C30.5564 16.9917 30.8314 16.575 30.8314 16.075C30.8314 15.6083 30.5814 15.3 30.0814 15.15C29.5814 15 28.7981 14.8833 27.7314 14.8C26.4814 14.6833 25.4731 14.5417 24.7064 14.375C23.9564 14.1917 23.3148 13.8417 22.7814 13.325C22.2648 12.8083 22.0064 12.0417 22.0064 11.025C22.0064 10.225 22.2398 9.525 22.7064 8.925C23.1731 8.325 23.8314 7.85833 24.6814 7.525C25.5314 7.19167 26.5148 7.025 27.6314 7.025C30.6648 7.025 32.5314 7.93333 33.2314 9.75C33.2814 9.9 33.3064 10.0333 33.3064 10.15C33.3064 10.5333 33.1481 10.8417 32.8314 11.075C32.5314 11.3083 32.1981 11.425 31.8314 11.425C31.5314 11.425 31.2814 11.3667 31.0814 11.25C30.8814 11.1333 30.7231 10.9333 30.6064 10.65C30.2564 9.88333 29.2648 9.5 27.6314 9.5C26.7981 9.5 26.1231 9.64167 25.6064 9.925C25.1064 10.2083 24.8564 10.5833 24.8564 11.05C24.8564 11.4833 25.0064 11.7667 25.3064 11.9C25.6064 12.0167 26.1314 12.1083 26.8814 12.175C27.1981 12.175 27.5314 12.2 27.8814 12.25C29.2314 12.4 30.2648 12.5667 30.9814 12.75C31.7148 12.9167 32.3481 13.2583 32.8814 13.775C33.4148 14.2917 33.6814 15.0583 33.6814 16.075C33.6814 16.8917 33.4314 17.6167 32.9314 18.25C32.4481 18.8833 31.7648 19.375 30.8814 19.725C29.9981 20.075 28.9814 20.25 27.8314 20.25C26.4481 20.25 25.1981 20.025 24.0814 19.575C22.9648 19.1083 22.2481 18.2583 21.9314 17.025ZM38.7354 5.4C38.7354 5.8 38.5854 6.10833 38.2854 6.325C38.002 6.54167 37.6687 6.65 37.2854 6.65C36.8854 6.65 36.5437 6.54167 36.2604 6.325C35.977 6.10833 35.8354 5.8 35.8354 5.4V5.075C35.8354 4.675 35.977 4.36667 36.2604 4.15C36.5437 3.93333 36.8854 3.825 37.2854 3.825C37.6687 3.825 38.002 3.93333 38.2854 4.15C38.5854 4.36667 38.7354 4.675 38.7354 5.075V5.4ZM35.8604 8.5C35.8604 8.11667 36.002 7.81667 36.2854 7.6C36.5854 7.38333 36.9187 7.275 37.2854 7.275C37.6687 7.275 38.002 7.38333 38.2854 7.6C38.5687 7.81667 38.7104 8.10833 38.7104 8.475V18.775C38.7104 19.1583 38.5687 19.4583 38.2854 19.675C38.002 19.8917 37.6687 20 37.2854 20C36.9187 20 36.5854 19.8917 36.2854 19.675C36.002 19.4583 35.8604 19.1583 35.8604 18.775V8.5ZM51.7141 7.275C52.1474 7.275 52.4974 7.41667 52.7641 7.7C53.0307 7.96667 53.1641 8.3 53.1641 8.7V19.225C53.1641 20.4083 52.8891 21.4167 52.3391 22.25C51.7891 23.1 51.0307 23.7333 50.0641 24.15C49.1141 24.5833 48.0474 24.8 46.8641 24.8C45.8474 24.8 44.9474 24.6667 44.1641 24.4C43.3974 24.15 42.6891 23.7167 42.0391 23.1C41.7224 22.7833 41.5641 22.4417 41.5641 22.075C41.5641 21.725 41.6974 21.4167 41.9641 21.15C42.2474 20.8833 42.5724 20.75 42.9391 20.75C43.2724 20.75 43.5974 20.8833 43.9141 21.15C44.3974 21.5833 44.8557 21.8667 45.2891 22C45.7224 22.15 46.2474 22.225 46.8641 22.225C47.8474 22.225 48.6724 21.9667 49.3391 21.45C50.0224 20.95 50.3641 20.2083 50.3641 19.225V19C49.8307 19.4 49.2224 19.7083 48.5391 19.925C47.8724 20.1417 47.2391 20.25 46.6391 20.25C45.4391 20.25 44.3807 19.975 43.4641 19.425C42.5474 18.875 41.8391 18.1 41.3391 17.1C40.8391 16.1 40.5891 14.9333 40.5891 13.6C40.5891 12.3167 40.8474 11.1833 41.3641 10.2C41.8807 9.2 42.5974 8.425 43.5141 7.875C44.4474 7.30833 45.5224 7.025 46.7391 7.025C47.3557 7.025 47.9807 7.11667 48.6141 7.3C49.2474 7.48333 49.8307 7.76667 50.3641 8.15C50.5474 7.56667 50.9974 7.275 51.7141 7.275ZM46.7141 17.725C47.5141 17.725 48.2557 17.55 48.9391 17.2C49.6224 16.85 50.0891 16.3583 50.3391 15.725V11.55C50.0391 10.9333 49.5641 10.45 48.9141 10.1C48.2807 9.73333 47.6224 9.55 46.9391 9.55C45.8891 9.55 45.0391 9.93333 44.3891 10.7C43.7557 11.45 43.4391 12.425 43.4391 13.625C43.4391 14.8583 43.7391 15.85 44.3391 16.6C44.9391 17.35 45.7307 17.725 46.7141 17.725ZM63.7682 7.025C65.4848 7.025 66.8265 7.575 67.7932 8.675C68.7765 9.775 69.2682 11.2333 69.2682 13.05V18.7C69.2682 19.1 69.1432 19.4167 68.8932 19.65C68.6432 19.8833 68.2932 20 67.8432 20C67.4265 20 67.0848 19.8833 66.8182 19.65C66.5515 19.4 66.4182 19.0833 66.4182 18.7V13C66.4182 11.9167 66.1598 11.0667 65.6432 10.45C65.1432 9.83333 64.3848 9.525 63.3682 9.525C62.8848 9.525 62.3432 9.66667 61.7432 9.95C61.1598 10.2333 60.6598 10.675 60.2432 11.275C59.8265 11.8583 59.6182 12.6 59.6182 13.5V18.7C59.6182 19.1 59.4932 19.4167 59.2432 19.65C59.0098 19.8833 58.6682 20 58.2182 20C57.7682 20 57.4098 19.8833 57.1432 19.65C56.8765 19.4 56.7432 19.0833 56.7432 18.7V5.025C56.7432 4.65833 56.8848 4.36667 57.1682 4.15C57.4682 3.93333 57.8098 3.825 58.1932 3.825C58.5765 3.825 58.9098 3.93333 59.1932 4.15C59.4765 4.36667 59.6182 4.65833 59.6182 5.025V8.425C60.7182 7.49167 62.1015 7.025 63.7682 7.025ZM78.4814 17.625C78.7814 17.475 79.0564 17.4 79.3064 17.4C79.6564 17.4 79.9481 17.525 80.1814 17.775C80.4314 18.0083 80.5564 18.2917 80.5564 18.625C80.5564 18.8583 80.4814 19.0833 80.3314 19.3C80.1981 19.5 79.9981 19.675 79.7314 19.825C79.3814 20.0083 79.0648 20.125 78.7814 20.175C78.5148 20.225 78.1481 20.25 77.6814 20.25C74.9981 20.25 73.6564 18.6833 73.6564 15.55V9.65H72.7064C72.2731 9.65 71.9314 9.53333 71.6814 9.3C71.4481 9.06667 71.3314 8.79167 71.3314 8.475C71.3314 8.15833 71.4481 7.88333 71.6814 7.65C71.9314 7.4 72.2731 7.275 72.7064 7.275H73.6564V5.125C73.6564 4.725 73.7898 4.40833 74.0564 4.175C74.3398 3.94167 74.6731 3.825 75.0564 3.825C75.4398 3.825 75.7731 3.94167 76.0564 4.175C76.3398 4.40833 76.4814 4.725 76.4814 5.125V7.275H78.4314C78.8481 7.275 79.1731 7.4 79.4064 7.65C79.6564 7.88333 79.7814 8.15833 79.7814 8.475C79.7814 8.79167 79.6564 9.06667 79.4064 9.3C79.1731 9.53333 78.8481 9.65 78.4314 9.65H76.4814V15.55C76.4814 16.2333 76.5564 16.7833 76.7064 17.2C76.8731 17.6 77.1981 17.8 77.6814 17.8C77.9481 17.8 78.2148 17.7417 78.4814 17.625Z" fill="white"/>
<path d="M16.872 32.712C16.872 32.904 16.8133 33.08 16.696 33.24C16.2373 33.848 15.64 34.3227 14.904 34.664C14.1787 34.9947 13.416 35.16 12.616 35.16C11.7093 35.16 10.8613 34.9253 10.072 34.456C9.29333 33.9867 8.67467 33.3467 8.216 32.536C7.75733 31.7147 7.53867 30.8133 7.56 29.832C7.56 28.744 7.82667 27.8107 8.36 27.032C8.904 26.2533 9.57067 25.6667 10.36 25.272C11.1493 24.8667 11.9173 24.664 12.664 24.664C13.4 24.664 14.104 24.792 14.776 25.048C15.448 25.304 15.9973 25.6773 16.424 26.168C16.52 26.2747 16.568 26.3973 16.568 26.536C16.568 26.696 16.5093 26.8347 16.392 26.952C16.2747 27.0693 16.1413 27.128 15.992 27.128C15.8533 27.128 15.72 27.0587 15.592 26.92C15.2613 26.536 14.8507 26.2427 14.36 26.04C13.8693 25.8267 13.368 25.72 12.856 25.72C12.248 25.72 11.6187 25.8853 10.968 26.216C10.328 26.536 9.78933 27.016 9.352 27.656C8.92533 28.2853 8.712 29.0267 8.712 29.88C8.72267 30.6267 8.90933 31.32 9.272 31.96C9.64533 32.6 10.136 33.112 10.744 33.496C11.352 33.88 11.9973 34.072 12.68 34.072C13.2773 34.072 13.8533 33.9493 14.408 33.704C14.9627 33.448 15.4107 33.0907 15.752 32.632V30.504H12.872C12.7013 30.504 12.568 30.456 12.472 30.36C12.3867 30.2533 12.344 30.1307 12.344 29.992C12.344 29.8427 12.3867 29.7147 12.472 29.608C12.568 29.5013 12.7013 29.448 12.872 29.448H16.264C16.6693 29.448 16.872 29.6453 16.872 30.04V32.712ZM20.4413 28.104C20.8786 27.1973 21.6733 26.744 22.8253 26.744C23.0173 26.744 23.1666 26.792 23.2733 26.888C23.3799 26.984 23.4333 27.1227 23.4333 27.304C23.4333 27.4747 23.3799 27.608 23.2733 27.704C23.1666 27.8 23.0173 27.848 22.8253 27.848C22.0466 27.848 21.4599 28.12 21.0653 28.664C20.6706 29.208 20.4733 29.912 20.4733 30.776V34.44C20.4733 34.6 20.4146 34.7333 20.2973 34.84C20.1906 34.9467 20.0573 35 19.8973 35C19.7159 35 19.5719 34.952 19.4653 34.856C19.3586 34.7493 19.3053 34.6107 19.3053 34.44V27.464C19.3053 27.2933 19.3639 27.16 19.4813 27.064C19.6093 26.9573 19.7479 26.904 19.8973 26.904C20.0466 26.904 20.1746 26.9573 20.2812 27.064C20.3879 27.16 20.4413 27.2933 20.4413 27.464V28.104ZM28.2676 35.16C27.4463 35.16 26.7156 34.968 26.0756 34.584C25.4463 34.2 24.9556 33.6827 24.6036 33.032C24.2623 32.3707 24.0916 31.64 24.0916 30.84C24.0916 30.072 24.273 29.3787 24.6356 28.76C24.9983 28.1307 25.4943 27.64 26.1236 27.288C26.7636 26.9253 27.4783 26.744 28.2676 26.744C29.057 26.744 29.7716 26.9307 30.4116 27.304C31.0516 27.6773 31.5476 28.184 31.8996 28.824C32.2623 29.464 32.4436 30.1627 32.4436 30.92C32.4436 31.72 32.2623 32.4453 31.8996 33.096C31.5476 33.736 31.0516 34.2427 30.4116 34.616C29.7716 34.9787 29.057 35.16 28.2676 35.16ZM28.2516 27.832C27.729 27.832 27.2383 27.9547 26.7796 28.2C26.3316 28.4347 25.969 28.792 25.6916 29.272C25.4143 29.7413 25.2756 30.3067 25.2756 30.968C25.2756 31.5333 25.3983 32.056 25.6436 32.536C25.8996 33.0053 26.2516 33.3787 26.6996 33.656C27.1583 33.9227 27.681 34.056 28.2676 34.056C28.8436 34.056 29.361 33.9173 29.8196 33.64C30.2783 33.352 30.6356 32.9733 30.8916 32.504C31.1476 32.0347 31.2756 31.5333 31.2756 31C31.2756 30.3173 31.1316 29.736 30.8436 29.256C30.5556 28.776 30.1823 28.4187 29.7236 28.184C29.265 27.9493 28.7743 27.832 28.2516 27.832ZM35.4736 31.576C35.4736 32.056 35.5856 32.488 35.8096 32.872C36.0443 33.2453 36.3483 33.5387 36.7216 33.752C37.1056 33.9653 37.5163 34.072 37.9536 34.072C38.4656 34.072 38.951 33.944 39.4096 33.688C39.879 33.4213 40.2523 33.0587 40.5296 32.6C40.8176 32.1307 40.9616 31.6133 40.9616 31.048V27.304C40.9616 27.1227 41.0096 26.984 41.1056 26.888C41.2123 26.792 41.3563 26.744 41.5376 26.744C41.719 26.744 41.863 26.7973 41.9696 26.904C42.087 27 42.1456 27.1333 42.1456 27.304V34.44C42.1456 34.6107 42.087 34.7493 41.9696 34.856C41.863 34.952 41.7296 35 41.5696 35C41.4096 35 41.271 34.952 41.1536 34.856C41.047 34.7493 40.9936 34.6053 40.9936 34.424V33.48C40.7163 34.0347 40.3003 34.456 39.7456 34.744C39.2016 35.0213 38.599 35.16 37.9376 35.16C37.3083 35.16 36.7163 35.0213 36.1616 34.744C35.607 34.456 35.159 34.04 34.8176 33.496C34.4763 32.952 34.3056 32.312 34.3056 31.576V27.304C34.3056 27.1227 34.3536 26.984 34.4496 26.888C34.5563 26.792 34.7003 26.744 34.8816 26.744C35.063 26.744 35.207 26.7973 35.3136 26.904C35.4203 27 35.4736 27.1333 35.4736 27.304V31.576ZM52.4593 31.064C52.4593 31.8427 52.2886 32.5413 51.9473 33.16C51.6059 33.7787 51.1206 34.2693 50.4913 34.632C49.8726 34.984 49.1633 35.16 48.3633 35.16C47.8086 35.16 47.2966 35.0533 46.8273 34.84C46.3579 34.616 46.0059 34.3013 45.7713 33.896V37.336C45.7713 37.5067 45.7126 37.64 45.5953 37.736C45.4886 37.8427 45.3553 37.896 45.1953 37.896C45.0353 37.896 44.8966 37.8427 44.7793 37.736C44.6619 37.64 44.6033 37.5067 44.6033 37.336V27.464C44.6033 27.2933 44.6566 27.16 44.7633 27.064C44.8699 26.9573 45.0139 26.904 45.1953 26.904C45.5579 26.904 45.7393 27.0907 45.7393 27.464V28.152C46.0059 27.7147 46.3846 27.3733 46.8753 27.128C47.3659 26.872 47.8619 26.744 48.3633 26.744C49.1099 26.744 49.7926 26.9147 50.4113 27.256C51.0406 27.5973 51.5366 28.0987 51.8993 28.76C52.2726 29.4107 52.4593 30.1787 52.4593 31.064ZM48.4593 27.848C47.9686 27.848 47.5153 27.9493 47.0993 28.152C46.6939 28.3547 46.3686 28.6427 46.1233 29.016C45.8886 29.3893 45.7713 29.832 45.7713 30.344V31.608C45.7713 32.3013 46.0113 32.8773 46.4913 33.336C46.9713 33.7947 47.5793 34.04 48.3153 34.072C49.2113 34.072 49.9206 33.8 50.4433 33.256C50.9766 32.7013 51.2593 32.008 51.2913 31.176C51.3019 30.568 51.1846 30.008 50.9393 29.496C50.6939 28.984 50.3526 28.584 49.9153 28.296C49.4779 27.9973 48.9926 27.848 48.4593 27.848Z" fill="white"/>
</svg>
